<svg xmlns="http://www.w3.org/2000/svg" viewBox="0 0 36 36"><path fill="#55acee" fill-rule="evenodd" d="M18 36a18 18 0 1 1 0-36 18 18 0 0 1 0 36zm3.56-25a3.84 3.84 0 0 0-3.73 3.84v.5c-3.73-.65-5.56-1.64-7.58-3.72-1.2 2.3.12 4.21 1.58 5.27-.98 0-1.8-.13-2.44-.69-.06-.03-.12 0-.09.07a5.82 5.82 0 0 0 3.8 3.71c-1.3 0-2.16.19-3.07-.37-.07-.03-.13 0-.1.06.7 1.9 2.09 2.48 4.11 2.48a7.94 7.94 0 0 1-4.93 1.55c-.1 0-.16.13-.06.19.95.77 3.28 1.36 6.57 1.36 5.4 0 9.8-4.7 9.8-10.53v-.31c.85-.31 1.33-1.06 1.58-1.8a.06.06 0 0 0-.06-.06l-1.8.62c-.04 0-.07-.06-.04-.1a4.75 4.75 0 0 0 1.58-2.04s-.03-.03-.06-.03c-.85.34-1.67.68-2.3.87a.38.38 0 0 1-.32-.03 6.74 6.74 0 0 0-2.44-.84z"/></svg>